{"title":"Steve Jobs 2015 DVDScr XVID AC3 HQ Hive-CM8","uid":13059537,"size":1776746795,"categoryP":"video","categoryS":"movies","magnet":"?xt=urn:btih:bac6b00be4b1faba82ea50de725a18e566d7dddf&amp;dn=Steve+Jobs+2015+DVDScr+XVID+AC3+HQ+Hive-CM8&amp;tr=udp%3A%2F%2Ftracker.leechers-paradise.org%3A6969&amp;tr=udp%3A%2F%2Fzer0day.ch%3A1337&amp;tr=udp%3A%2F%2Fopen.demonii.com%3A1337&amp;tr=udp%3A%2F%2Ftracker.coppersurfer.tk%3A6969&amp;tr=udp%3A%2F%2Fexodus.desync.com%3A6969","seeders":1,"leechers":0,"uploader":"makintos13","files":3,"time":1450700323,"description":"screens:\r\n \nhttp://imgmak.com/KmT \nhttp://imgmak.com/Kma \nhttp://imgmak.com/Kmp \nhttp://imgmak.com/KmR \nhttp://imgmak.com/Kmb \nhttp://imgmak.com/Kmx\r\n\r\n\r\n\r\nSteve Jobs 2015 DVDScr XVID AC3 HQ Hive-CM8\r\n\r\n\r\nThx Hive\r\n\r\nCM8 Doing It Right The First Time\r\n\r\nSource: DVD-Screener Big THX m8\r\n\r\nNotes:\r\nDVDScreener 6 of 40\r\nwill do them all one after each other, 6th hot title\r\n\r\nEncode:\r\nquality was perfect on this\r\nAll digital watermarks are removed\r\nFixed brightness,contrast and rgb, and added sharpness\r\n\r\ngot very nice\r\nenjoy\r\n\r\nVideo: 720x304 @bitrate 1700 2pass\r\nAudio: English AC3 2.0 Stereo\r\nSample: yes included \nhttp://www.imdb.com/title/tt2080374/\r\n\r\nGeneral\r\nComplete name: Steve.Jobs.2015.DVDScr.XVID.AC3.HQ.Hive-CM8.avi\r\nFormat: AVI\r\nFormat/Info: Audio Video Interleave\r\nFile size: 1.64 GiB\r\nDuration: 2h 2mn\r\nOverall bit rate: 1 924 Kbps\r\nWriting application: Nandub v1.0rc2\r\nWriting library: Nandub build 1853/release\r\n\r\nVideo\r\nID: 0\r\nFormat: MPEG-4 Visual\r\nFormat profile: Advanced   \r\nFormat settings, BVOP: 2\r\nFormat settings, QPel: Yes\r\nFormat settings, GMC: No warppoints\r\nFormat settings, Matrix: Default (H.263)\r\nMuxing mode: Packed bitstream\r\nCodec ID: XVID\r\nCodec ID/Hint: XviD\r\nDuration: 2h 2mn\r\nBit rate: 1 656 Kbps\r\nWidth: 720 pixels\r\nHeight: 304 pixels\r\nDisplay aspect ratio: 2.35:1\r\nFrame rate: 29.970 fps\r\nColor space: YUV\r\nChroma subsampling: 4:2:0\r\nBit depth: 8 bits\r\nScan type: Progressive\r\nCompression mode: Lossy\r\nBits/(Pixel*Frame): 0.252\r\nStream size: 1.41 GiB (86%)\r\nWriting library: XviD 1.2.1 (UTC 2008-12-04)\r\n\r\nAudio\r\nID: 1\r\nFormat: AC-3\r\nFormat/Info: Audio Coding 3\r\nMode extension: CM (complete main)\r\nFormat settings, Endianness: Big\r\nCodec ID: 2000\r\nDuration: 2h 2mn\r\nBit rate mode: Constant\r\nBit rate: 256 Kbps\r\nChannel(s): 2 channels\r\nChannel positions: Front: L R\r\nSampling rate: 48.0 KHz\r\nBit depth: 16 bits\r\nCompression mode: Lossy\r\nDelay relative to video: 28ms\r\nStream size: 224 MiB (13%)\r\nAlignment: Split accross interleaves\r\nInterleave, duration: 33 ms (1.00 video frame)\r\nInterleave, preload duration: 500 ms","torrent":{"xt":"urn:btih:bac6b00be4b1faba82ea50de725a18e566d7dddf","amp;dn":"Steve+Jobs+2015+DVDScr+XVID+AC3+HQ+Hive-CM8","amp;tr":["udp%3A%2F%2Ftracker.leechers-paradise.org%3A6969","udp%3A%2F%2Fzer0day.ch%3A1337","udp%3A%2F%2Fopen.demonii.com%3A1337","udp%3A%2F%2Ftracker.coppersurfer.tk%3A6969","udp%3A%2F%2Fexodus.desync.com%3A6969"],"infoHash":"bac6b00be4b1faba82ea50de725a18e566d7dddf","infoHashBuffer":{"type":"Buffer","data":[186,198,176,11,228,177,250,186,130,234,80,222,114,90,24,229,102,215,221,223]},"announce":[],"urlList":[]}}